<svg xmlns="http://www.w3.org/2000/svg" viewBox="0 0 103.2 54.05"><title>100</title><path d="M20.27,53.33H10V13.15L0,17V8.49L19.19.65h1.08ZM65.76,31.58q0,10.91-4,16.69a12.82,12.82,0,0,1-11.27,5.78,13,13,0,0,1-11.24-5.6q-3.94-5.64-4.08-16.12V22.4q0-10.88,3.94-16.62A12.86,12.86,0,0,1,50.44,0,12.91,12.91,0,0,1,61.75,5.71q3.94,5.71,4,16.3ZM55.5,20.92q0-6.21-1.23-9.32T50.44,8.49q-4.88,0-5.06,11.38V33q0,6.36,1.23,9.47t3.9,3.11q2.49,0,3.69-2.89t1.3-8.92Zm47.7,10.66q0,10.91-4,16.69a12.82,12.82,0,0,1-11.27,5.78,13,13,0,0,1-11.24-5.6q-3.94-5.64-4.08-16.12V22.4q0-10.88,3.94-16.62A12.86,12.86,0,0,1,87.88,0,12.91,12.91,0,0,1,99.18,5.71q3.94,5.71,4,16.3ZM92.93,20.92q0-6.21-1.23-9.32T87.88,8.49q-4.88,0-5.06,11.38V33q0,6.36,1.23,9.47t3.9,3.11q2.49,0,3.69-2.89t1.3-8.92Z" style="fill:#fff"/></svg>