<svg xmlns="http://www.w3.org/2000/svg" xmlns:xlink="http://www.w3.org/1999/xlink" viewBox="0 0 102.13 51.86"><defs><linearGradient id="a" x1="37.43" y1="64.01" x2="60.91" y2="-3.44" gradientTransform="matrix(1, 0, 0, -1, 0, 52.34)" gradientUnits="userSpaceOnUse"><stop offset="0" stop-color="#d10a42"/><stop offset="1" stop-color="#0041ca"/></linearGradient></defs><title>350</title><path d="M9.71,21.46h4.75a4.41,4.41,0,0,0,4-1.87,8.93,8.93,0,0,0,1.28-5.06,7.37,7.37,0,0,0-1.32-4.68,4.12,4.12,0,0,0-3.47-1.7,4.17,4.17,0,0,0-3.36,1.59,6.21,6.21,0,0,0-1.28,4H.45a13.88,13.88,0,0,1,1.8-7.07,12.89,12.89,0,0,1,5.1-4.92A15.14,15.14,0,0,1,14.63,0q7,0,10.92,3.85t4,10.54a12,12,0,0,1-1.8,6.38A12.07,12.07,0,0,1,23,25.24a10.71,10.71,0,0,1,5.3,4.58A14.13,14.13,0,0,1,30.09,37a14.13,14.13,0,0,1-4.3,10.78q-4.26,4.06-11.23,4.06A14.39,14.39,0,0,1,4,47.88,14.25,14.25,0,0,1,0,37.34H9.81a7.2,7.2,0,0,0,1.42,4.54,4.37,4.37,0,0,0,3.61,1.84,4.78,4.78,0,0,0,4-1.87,7.79,7.79,0,0,0,1.49-5q0-7.45-5.79-7.49H9.71Zm28.19,4.89L40.39.69H64.83V9.08H48.43l-.9,10.82A10.39,10.39,0,0,1,53.39,18q6.24,0,9.6,4.44T66.39,35q0,7.59-4,12.24a13.5,13.5,0,0,1-10.75,4.65A15.05,15.05,0,0,1,44.24,50a14.17,14.17,0,0,1-5.37-5.27,15.23,15.23,0,0,1-2-7.63h9.71A9.14,9.14,0,0,0,48.15,42a4.19,4.19,0,0,0,7.14-.59q1.32-2.36,1.32-7Q56.61,30,55,27.8a5.07,5.07,0,0,0-4.4-2.22,5.19,5.19,0,0,0-4.3,1.91l-.62.87Zm64.24,4q0,10.47-3.81,16A12.3,12.3,0,0,1,87.5,51.86a12.45,12.45,0,0,1-10.78-5.37Q72.94,41.08,72.8,31V21.49q0-10.44,3.78-15.95A12.34,12.34,0,0,1,87.43,0,12.38,12.38,0,0,1,98.28,5.48q3.78,5.48,3.85,15.64ZM92.29,20.07q0-6-1.18-8.94t-3.67-3q-4.68,0-4.85,10.92V31.65q0,6.1,1.18,9.08t3.74,3q2.39,0,3.54-2.77t1.25-8.56Z" style="fill:url(#a)"/></svg>