<svg xmlns="http://www.w3.org/2000/svg" xmlns:xlink="http://www.w3.org/1999/xlink" viewBox="0 0 63.93 51.17"><defs><linearGradient id="a" x1="11.65" y1="57.5" x2="43.17" y2="-1.19" gradientTransform="matrix(1, 0, 0, -1, 0, 50.95)" gradientUnits="userSpaceOnUse"><stop offset="0" stop-color="#d10a42"/><stop offset="1" stop-color="#0041ca"/></linearGradient></defs><title>5+</title><path d="M1,25.65,3.5,0H27.94V8.39H11.54l-.9,10.82A10.39,10.39,0,0,1,16.5,17.3q6.24,0,9.6,4.44t3.4,12.55q0,7.59-4,12.24a13.5,13.5,0,0,1-10.75,4.65A15.05,15.05,0,0,1,7.35,49.3,14.17,14.17,0,0,1,2,44,15.23,15.23,0,0,1,0,36.4H9.71a9.14,9.14,0,0,0,1.56,4.89,4.19,4.19,0,0,0,7.14-.59q1.32-2.36,1.32-7,0-4.37-1.59-6.59a5.07,5.07,0,0,0-4.4-2.22,5.19,5.19,0,0,0-4.3,1.91l-.62.87Zm53.11-3.47h9.81v9.12H54.12V45.42H44.83V31.31h-10V22.19h10V8.67h9.29Z" style="fill:url(#a)"/></svg>