<svg xmlns="http://www.w3.org/2000/svg" xmlns:xlink="http://www.w3.org/1999/xlink" viewBox="0 0 66.18 51.86"><defs><linearGradient id="a" x1="14.97" y1="59.22" x2="46" y2="-0.2" gradientTransform="matrix(1, 0, 0, -1, 0, 52.34)" gradientUnits="userSpaceOnUse"><stop offset="0" stop-color="#d10a42"/><stop offset="1" stop-color="#0041ca"/></linearGradient></defs><title>70</title><path d="M30.54,6.34,14.6,51.17H4.23l16-42.33H0V.69H30.54Zm35.64,24q0,10.47-3.81,16a12.3,12.3,0,0,1-10.82,5.55,12.45,12.45,0,0,1-10.78-5.37Q37,41.08,36.85,31V21.49q0-10.44,3.78-15.95A12.34,12.34,0,0,1,51.48,0,12.38,12.38,0,0,1,62.33,5.48Q66.11,11,66.18,21.11ZM56.34,20.07q0-6-1.18-8.94t-3.67-3q-4.68,0-4.85,10.92V31.65q0,6.1,1.18,9.08t3.74,3q2.39,0,3.54-2.77t1.25-8.56Z" style="fill:url(#a)"/></svg>