<svg xmlns="http://www.w3.org/2000/svg" xmlns:xlink="http://www.w3.org/1999/xlink" viewBox="0 0 101.33 51.86"><defs><linearGradient id="a" x1="26.23" y1="67.46" x2="48.68" y2="29.35" gradientTransform="matrix(1, 0, 0, -1, 0, 52.34)" gradientUnits="userSpaceOnUse"><stop offset="0" stop-color="#d10a42"/><stop offset="1" stop-color="#0041ca"/></linearGradient></defs><title>900</title><path d="M19.21,31.65a9.42,9.42,0,0,1-6.83,3.19,10.61,10.61,0,0,1-9.08-4.61Q0,25.58,0,17.85A21.81,21.81,0,0,1,1.87,8.74a15.14,15.14,0,0,1,5.2-6.45A13,13,0,0,1,14.56,0a12.21,12.21,0,0,1,7.59,2.53,16.21,16.21,0,0,1,5.17,7.28,29.43,29.43,0,0,1,1.84,10.75v3.57q0,12.9-5.69,20.18T7.42,51.69h-1V43.23h.66q5.75,0,8.63-3T19.21,31.65Zm-4.33-4.51q2.84,0,4.47-3.88V18.76A18.22,18.22,0,0,0,18,11q-1.35-2.84-3.5-2.84T11.06,11a16.13,16.13,0,0,0-1.28,6.79,14.75,14.75,0,0,0,1.35,6.9A4.14,4.14,0,0,0,14.87,27.15ZM65.42,30.3q0,10.47-3.81,16a12.3,12.3,0,0,1-10.82,5.55A12.45,12.45,0,0,1,40,46.49Q36.23,41.08,36.09,31V21.49q0-10.44,3.78-15.95A12.34,12.34,0,0,1,50.72,0,12.38,12.38,0,0,1,61.57,5.48Q65.35,11,65.42,21.11ZM55.57,20.07q0-6-1.18-8.94t-3.67-3q-4.68,0-4.85,10.92V31.65q0,6.1,1.18,9.08t3.74,3q2.39,0,3.54-2.77t1.25-8.56ZM101.33,30.3q0,10.47-3.81,16A12.3,12.3,0,0,1,86.7,51.86a12.45,12.45,0,0,1-10.78-5.37Q72.14,41.08,72,31V21.49q0-10.44,3.78-15.95A12.34,12.34,0,0,1,86.64,0,12.38,12.38,0,0,1,97.49,5.48q3.78,5.48,3.85,15.64ZM91.49,20.07q0-6-1.18-8.94t-3.67-3q-4.68,0-4.85,10.92V31.65q0,6.1,1.18,9.08t3.74,3q2.39,0,3.54-2.77t1.25-8.56Z" style="fill:url(#a)"/></svg>